<svg version="1.1" xmlns="http://www.w3.org/2000/svg" xmlns:xlink="http://www.w3.org/1999/xlink" width="497.20602" height="382.11119" viewBox="0,0,497.20602,382.11119"><g transform="translate(8.29149,11.08406)"><g data-paper-data="{&quot;isPaintingLayer&quot;:true}" fill="#a5a5a5" fill-rule="nonzero" stroke="#000000" stroke-width="10" stroke-linecap="butt" stroke-linejoin="miter" stroke-miterlimit="10" stroke-dasharray="" stroke-dashoffset="0" style="mix-blend-mode: normal"><path d="M-3.29148,364.29637v-370.38042h6.923v370.38042z"/><path d="M-2.42611,5.16582v-7.78837h486.34065v7.78838z"/><path d="M474.39542,366.02712v-368.64967h8.65375v368.64968z"/><path d="M-1.56073,364.29637v-7.78837h482.87915v7.78837z"/><path d="M32.18889,335.739v-305.47731h1.73075v305.47731z"/><path d="M444.1073,29.39631v1.73075h-173.56787c-0.08143,-0.62262 -0.20668,-1.19836 -0.36868,-1.73075z"/><path d="M32.18889,31.12706v-1.73075h170.88238c-0.07207,0.60973 -0.09622,1.18607 -0.0787,1.73075z"/><path d="M441.51118,328.81597v-297.68893h2.59613v297.68893z"/><path d="M33.05426,334.87361v-3.4615h114.63995c0.08216,1.34109 0.35517,2.48529 0.76124,3.4615z"/><path d="M251.99409,331.41211v3.4615h-42.7097c0.40606,-0.97621 0.67908,-2.12041 0.76124,-3.4615z"/><path d="M251.12872,334.00825v-0.86537h118.18388c0.03913,0.29915 0.08837,0.58748 0.14694,0.86537z"/><path d="M444.1073,333.14286v0.86537h-21.63058c0.08416,-0.27659 0.15841,-0.56488 0.22174,-0.86537z"/><path d="M442.37655,335.739v-9.51912h1.73075v9.51912z"/><path d="M354.9737,332.27747v-259.61244h1.73075v259.61244z"/><path d="M79.7845,124.58754v-1.73075h275.1892v1.73075z"/><path d="M176.70648,102.95316v-71.82611h2.59613v71.82611z"/><path d="M283.14759,332.27747v-181.72871h1.73075v181.72871z"/><path d="M78.05375,178.99409v-1.69543h207.68996v1.69543z"/><path d="M106.61112,333.14286v-103.84498h1.73075v103.84498z"/><path d="M146.41834,232.75939v-18.17287h18.17287v18.17287z"/><path d="M205.26385,270.83588v-16.44212h17.3075v16.44212z"/><path d="M149.01449,301.98938v-18.17287h17.3075v18.17287z"/><path d="M392.18481,110.74154v-8.65375h5.19225v8.65375z"/><path d="M399.97318,171.31778v-8.65375h7.78837v8.65375z"/><path d="M384.39644,271.70124v-14.71137h10.3845v14.71137z"/><path d="M261.51321,83.04954v-12.11525h11.24987v12.11525z"/><path d="M95.36125,73.53042v-10.3845h12.11525v10.3845z"/></g></g></svg>