<svg version="1.1" xmlns="http://www.w3.org/2000/svg" xmlns:xlink="http://www.w3.org/1999/xlink" width="591.90923" height="397.78397" viewBox="0,0,591.90923,397.78397"><g transform="translate(107.99471,31.75686)"><g data-paper-data="{&quot;isPaintingLayer&quot;:true}" fill="#a5a5a5" fill-rule="nonzero" stroke-linecap="butt" stroke-linejoin="miter" stroke-miterlimit="10" stroke-dasharray="" stroke-dashoffset="0" style="mix-blend-mode: normal"><path d="M-107.9947,-30.99787v-0.75898h1.51797v0.75898z" stroke="none" stroke-width="0"/><path d="M-3.29149,364.29636v-370.38042h6.923v370.38042z" stroke="none" stroke-width="0"/><path d="M-2.42612,5.16581v-7.78837h486.34065v7.78838z" stroke="none" stroke-width="0"/><path d="M474.39541,366.02711v-368.64967h8.65375v368.64968z" stroke="none" stroke-width="0"/><path d="M-1.56074,364.29636v-7.78837h482.87915v7.78837z" stroke="none" stroke-width="0"/><path d="M32.18888,335.73899v-305.47731h1.73075v305.47731z" stroke="none" stroke-width="0"/><path d="M444.10729,29.3963v1.73075h-173.56787c-0.08143,-0.62262 -0.20668,-1.19836 -0.36868,-1.73075z" stroke="none" stroke-width="0"/><path d="M32.18888,31.12705v-1.73075h170.88238c-0.07207,0.60973 -0.09622,1.18607 -0.0787,1.73075z" stroke="none" stroke-width="0"/><path d="M441.51117,328.81597v-297.68893h2.59613v297.68893z" stroke="none" stroke-width="0"/><path d="M33.05425,334.87361v-3.4615h114.63995c0.08216,1.34109 0.35517,2.48529 0.76124,3.4615z" stroke="none" stroke-width="0"/><path d="M251.99408,331.41211v3.4615h-42.7097c0.40606,-0.97621 0.67908,-2.12041 0.76124,-3.4615z" stroke="none" stroke-width="0"/><path d="M251.12871,334.00824v-0.86537h118.18388c0.03913,0.29915 0.08837,0.58748 0.14694,0.86537z" stroke="#000000" stroke-width="0.5"/><path d="M444.10729,333.14286v0.86537h-21.63058c0.08416,-0.27659 0.15841,-0.56488 0.22174,-0.86537z" stroke="#000000" stroke-width="0.5"/><path d="M442.37654,335.73899v-9.51912h1.73075v9.51912z" stroke="#000000" stroke-width="0.5"/><path d="M354.97369,332.27747v-259.61244h1.73075v259.61244z" stroke="#000000" stroke-width="0.5"/><path d="M79.78449,124.58753v-1.73075h275.1892v1.73075z" stroke="#000000" stroke-width="0.5"/><path d="M176.70647,102.95315v-71.82611h2.59613v71.82611z" stroke="#000000" stroke-width="0.5"/><path d="M283.14758,332.27747v-181.72871h1.73075v181.72871z" stroke="#000000" stroke-width="0.5"/><path d="M78.05374,178.99408v-1.69543h207.68996v1.69543z" stroke="#000000" stroke-width="0.5"/><path d="M106.61111,333.14286v-103.84498h1.73075v103.84498z" stroke="#000000" stroke-width="0.5"/><path d="M146.41834,232.75938v-18.17287h18.17287v18.17287z" stroke="#000000" stroke-width="0.5"/><path d="M205.26384,270.83587v-16.44212h17.3075v16.44212z" stroke="#000000" stroke-width="0.5"/><path d="M149.01448,301.98937v-18.17287h17.3075v18.17287z" stroke="#000000" stroke-width="0.5"/><path d="M392.1848,110.74153v-8.65375h5.19225v8.65375z" stroke="#000000" stroke-width="0.5"/><path d="M399.97317,171.31777v-8.65375h7.78837v8.65375z" stroke="#000000" stroke-width="0.5"/><path d="M384.39643,271.70124v-14.71137h10.3845v14.71137z" stroke="#000000" stroke-width="0.5"/><path d="M261.5132,83.04954v-12.11525h11.24987v12.11525z" stroke="#000000" stroke-width="0.5"/><path d="M95.36124,73.53041v-10.3845h12.11525v10.3845z" stroke="#000000" stroke-width="0.5"/></g></g></svg>