<svg version="1.1" xmlns="http://www.w3.org/2000/svg" xmlns:xlink="http://www.w3.org/1999/xlink" width="593.7746" height="397.78398" viewBox="0,0,593.7746,397.78398"><g transform="translate(108.9947,31.75685)"><g data-paper-data="{&quot;isPaintingLayer&quot;:true}" fill="#a5a5a5" fill-rule="nonzero" stroke-linecap="butt" stroke-linejoin="miter" stroke-miterlimit="10" stroke-dasharray="" stroke-dashoffset="0" style="mix-blend-mode: normal"><path d="M-108.9947,-30.99786v-0.75898h1.51797v0.75898z" stroke="none" stroke-width="0"/><path d="M-106.99469,-30.99785v-0.75898h1.51797v0.75898z" stroke="none" stroke-width="0"/><path d="M-108.86008,-30.99785v-0.75898h1.51797v0.75898z" stroke="none" stroke-width="0"/><path d="M-4.15687,364.29638v-370.38042h6.923v370.38042z" stroke="none" stroke-width="0"/><path d="M-3.2915,5.16581v-7.78837h486.34065v7.78838z" stroke="none" stroke-width="0"/><path d="M473.53003,366.02713v-368.64967h8.65375v368.64968z" stroke="none" stroke-width="0"/><path d="M-2.42612,364.29638v-7.78837h482.87915v7.78837z" stroke="none" stroke-width="0"/><path d="M31.3235,335.73901v-305.47731h1.73075v305.47731z" stroke="none" stroke-width="0"/><path d="M443.24191,29.39632v1.73075h-173.56787c-0.08143,-0.62262 -0.20668,-1.19836 -0.36868,-1.73075z" stroke="none" stroke-width="0"/><path d="M31.3235,31.12707v-1.73075h170.88238c-0.07207,0.60973 -0.09622,1.18607 -0.0787,1.73075z" stroke="none" stroke-width="0"/><path d="M440.64579,328.81597v-297.68893h2.59613v297.68893z" stroke="none" stroke-width="0"/><path d="M32.18887,334.87361v-3.4615h114.63995c0.08216,1.34109 0.35517,2.48529 0.76124,3.4615z" stroke="none" stroke-width="0"/><path d="M251.1287,331.41211v3.4615h-42.7097c0.40606,-0.97621 0.67908,-2.12041 0.76124,-3.4615z" stroke="none" stroke-width="0"/><path d="M250.26333,334.00825v-0.86537h118.18388c0.03913,0.29915 0.08837,0.58748 0.14694,0.86537z" stroke="#000000" stroke-width="0.5"/><path d="M443.24191,333.14288v0.86537h-21.63058c0.08416,-0.27659 0.15841,-0.56488 0.22174,-0.86537z" stroke="#000000" stroke-width="0.5"/><path d="M441.51116,335.73901v-9.51912h1.73075v9.51912z" stroke="#000000" stroke-width="0.5"/><path d="M354.10831,332.27747v-259.61244h1.73075v259.61244z" stroke="#000000" stroke-width="0.5"/><path d="M78.91911,124.58755v-1.73075h275.1892v1.73075z" stroke="#000000" stroke-width="0.5"/><path d="M175.84109,102.95316v-71.82611h2.59613v71.82611z" stroke="#000000" stroke-width="0.5"/><path d="M282.2822,332.27747v-181.72871h1.73075v181.72871z" stroke="#000000" stroke-width="0.5"/><path d="M77.18836,178.9941v-1.69543h207.68996v1.69543z" stroke="#000000" stroke-width="0.5"/><path d="M105.74573,333.14288v-103.84498h1.73075v103.84498z" stroke="#000000" stroke-width="0.5"/><path d="M145.55297,232.75938v-18.17287h18.17287v18.17287z" stroke="#000000" stroke-width="0.5"/><path d="M204.39846,270.83588v-16.44212h17.3075v16.44212z" stroke="#000000" stroke-width="0.5"/><path d="M148.1491,301.98938v-18.17287h17.3075v18.17287z" stroke="#000000" stroke-width="0.5"/><path d="M391.31942,110.74155v-8.65375h5.19225v8.65375z" stroke="#000000" stroke-width="0.5"/><path d="M399.10779,171.31779v-8.65375h7.78837v8.65375z" stroke="#000000" stroke-width="0.5"/><path d="M383.53105,271.70124v-14.71137h10.3845v14.71137z" stroke="#000000" stroke-width="0.5"/><path d="M260.64782,83.04954v-12.11525h11.24987v12.11525z" stroke="#000000" stroke-width="0.5"/><path d="M94.49586,73.53043v-10.3845h12.11525v10.3845z" stroke="#000000" stroke-width="0.5"/><path d="M-2.42612,364.29637v-370.38042h6.923v370.38042z" stroke="none" stroke-width="0"/><path d="M-1.56075,5.16581v-7.78837h486.34065v7.78838z" stroke="none" stroke-width="0"/><path d="M475.26078,366.02712v-368.64967h8.65375v368.64968z" stroke="none" stroke-width="0"/><path d="M-0.69537,364.29637v-7.78837h482.87915v7.78837z" stroke="none" stroke-width="0"/><path d="M33.05425,335.739v-305.47731h1.73075v305.47731z" stroke="none" stroke-width="0"/><path d="M444.97266,29.39631v1.73075h-173.56787c-0.08143,-0.62262 -0.20668,-1.19836 -0.36868,-1.73075z" stroke="none" stroke-width="0"/><path d="M33.05425,31.12706v-1.73075h170.88238c-0.07207,0.60973 -0.09622,1.18607 -0.0787,1.73075z" stroke="none" stroke-width="0"/><path d="M442.37654,328.81597v-297.68893h2.59613v297.68893z" stroke="none" stroke-width="0"/><path d="M33.91962,334.87361v-3.4615h114.63995c0.08216,1.34109 0.35517,2.48529 0.76124,3.4615z" stroke="none" stroke-width="0"/><path d="M252.85945,331.41211v3.4615h-42.7097c0.40606,-0.97621 0.67908,-2.12041 0.76124,-3.4615z" stroke="none" stroke-width="0"/><path d="M251.99408,334.00825v-0.86537h118.18388c0.03913,0.29915 0.08837,0.58748 0.14694,0.86537z" stroke="#000000" stroke-width="0.5"/><path d="M444.97266,333.14287v0.86537h-21.63058c0.08416,-0.27659 0.15841,-0.56488 0.22174,-0.86537z" stroke="#000000" stroke-width="0.5"/><path d="M443.24191,335.739v-9.51912h1.73075v9.51912z" stroke="#000000" stroke-width="0.5"/><path d="M355.83906,332.27747v-259.61244h1.73075v259.61244z" stroke="#000000" stroke-width="0.5"/><path d="M80.64986,124.58754v-1.73075h275.1892v1.73075z" stroke="#000000" stroke-width="0.5"/><path d="M177.57184,102.95316v-71.82611h2.59613v71.82611z" stroke="#000000" stroke-width="0.5"/><path d="M284.01295,332.27747v-181.72871h1.73075v181.72871z" stroke="#000000" stroke-width="0.5"/><path d="M78.91911,178.99409v-1.69543h207.68996v1.69543z" stroke="#000000" stroke-width="0.5"/><path d="M107.47648,333.14287v-103.84498h1.73075v103.84498z" stroke="#000000" stroke-width="0.5"/><path d="M147.28372,232.75938v-18.17287h18.17287v18.17287z" stroke="#000000" stroke-width="0.5"/><path d="M206.12921,270.83588v-16.44212h17.3075v16.44212z" stroke="#000000" stroke-width="0.5"/><path d="M149.87985,301.98938v-18.17287h17.3075v18.17287z" stroke="#000000" stroke-width="0.5"/><path d="M393.05017,110.74154v-8.65375h5.19225v8.65375z" stroke="#000000" stroke-width="0.5"/><path d="M400.83854,171.31778v-8.65375h7.78837v8.65375z" stroke="#000000" stroke-width="0.5"/><path d="M385.2618,271.70124v-14.71137h10.3845v14.71137z" stroke="#000000" stroke-width="0.5"/><path d="M262.37857,83.04954v-12.11525h11.24987v12.11525z" stroke="#000000" stroke-width="0.5"/><path d="M96.22661,73.53042v-10.3845h12.11525v10.3845z" stroke="#000000" stroke-width="0.5"/></g></g></svg>