<svg version="1.1" xmlns="http://www.w3.org/2000/svg" xmlns:xlink="http://www.w3.org/1999/xlink" width="97.39036" height="194.10377" viewBox="0,0,97.39036,194.10377"><g transform="translate(-191.85461,-85.74)"><g data-paper-data="{&quot;isPaintingLayer&quot;:true}" fill-rule="nonzero" stroke-linejoin="miter" stroke-miterlimit="10" stroke-dasharray="" stroke-dashoffset="0" style="mix-blend-mode: normal"><path d="M249.0654,270.80972c-0.06289,0.06289 -0.12577,0.08103 -0.1807,0.07831l-0.04149,0.02489l-0.15256,0.13077l-0.13887,0.06943l-0.08873,0.05324l-0.15257,0.13077l-0.05377,0.02688l-0.00697,0.01219l-0.03483,0.00871l-0.03115,0.01558l-0.00198,0.00044l-0.04835,0.0564l-0.00988,0.00055c-0.42842,0.43745 -0.82162,0.87955 -1.48969,1.21358c0,0 -0.10633,0.05316 -0.209,0.01285c-0.0445,0.01354 -0.08029,0.01354 -0.08029,0.01354h-0.17749c-0.87346,0 -1.51377,-0.09791 -2.30221,-0.24549c-0.00957,0.00283 -0.01532,0.00398 -0.01532,0.00398c-0.38132,0.0653 -0.66074,-0.02513 -0.90738,-0.18534l-0.03924,0.00785l-0.00791,-0.03957c-0.04639,-0.03227 -0.09174,-0.06688 -0.13654,-0.10324l-0.00662,0.00756c-0.01204,-0.00874 -0.02415,-0.01784 -0.03633,-0.02729c-1.36908,-0.15028 -2.35494,-2.85365 -1.56267,-4.18521c0.23357,-1.0842 0.83888,-2.11242 1.74207,-2.50089l-0.0345,-0.069l0.13756,-0.06878c0.24758,-0.32592 0.549,-0.54721 0.90496,-0.61329c1.24218,-2.2095 2.68796,-4.25229 3.40487,-4.66195c0.1687,-0.28584 0.44793,-0.49869 0.7789,-0.57975c-0.23789,-5.2098 -0.98788,-10.5005 -1.234,-15.70315c-0.04266,-0.90179 -0.27628,-2.06167 -0.43032,-3.23775l-0.07977,0.03988l-0.00473,-0.00945l-0.02594,0.02231c-0.63584,0.12717 -1.84057,0.7956 -2.89202,1.20837c-0.77108,0.52539 -1.61837,0.93675 -2.18806,1.0348c-0.07011,0.0879 -0.15535,0.17697 -0.2733,0.29493l-0.19008,0.19008l-0.02979,-0.02978c-0.17693,0.5271 -0.57728,0.40102 -0.76969,-0.14972l-0.00713,-0.17884c-0.00034,-0.00545 -0.00034,-0.00852 -0.00034,-0.00852c0,-1.56265 -0.05314,-3.13839 -0.06337,-4.68869v-0.25344c0,-0.13807 0.11193,-0.25 0.25,-0.25c0.03208,0 0.06276,0.00605 0.09095,0.01706c-0.0062,-0.03285 -0.01263,-0.06558 -0.01929,-0.0982c0,0 -0.02695,-0.13476 0.05903,-0.22444c-0.14906,-0.54439 -0.22913,-1.0647 -0.22913,-1.45242c0,-4.19633 1.18291,-9.46452 1.77136,-13.72779c0.11202,-0.81161 0.31357,-4.77317 0.55842,-7.52638c-0.05813,-0.26236 -0.08879,-0.53505 -0.08879,-0.8149c0,-0.63462 0.15764,-1.23243 0.4359,-1.75639c-0.02205,-1.37052 0.20017,-2.78819 0.26106,-4.13616c0.06361,-1.40826 0.3807,-3.66012 0.73301,-6.1517c-0.27029,-2.635 0.43981,-5.97978 0.5342,-7.59758c0.05167,-0.88556 -0.12862,-3.39459 0.50955,-4.07544c-0.04236,-0.49301 -0.11562,-0.91386 -0.22607,-1.24518c-0.14248,-0.3963 -0.22012,-0.82353 -0.22012,-1.26889c0,-0.21104 0.01744,-0.418 0.05094,-0.61954c0.05153,-0.57145 0.12174,-1.00132 0.36787,-1.37452c-0.02546,-0.17645 -0.03865,-0.35686 -0.03865,-0.54037c0,-0.04923 0.00095,-0.09823 0.00283,-0.147c-0.72014,-1.79533 -0.64178,-3.83791 -0.168,-5.85327c-0.6618,-0.17636 -1.29144,-0.45574 -1.52524,-0.57263c-2.88394,-1.44197 -7.07688,-2.8257 -9.81363,-4.9127c-0.00528,0.00007 -0.01058,0.0001 -0.01588,0.0001c-0.69036,0 -1.25,-0.55964 -1.25,-1.25c0,-0.277 0.0901,-0.53296 0.24259,-0.74017c0.2048,-1.01701 0.83477,-2.27582 1.12491,-2.65425c2.45353,-3.20004 3.93681,-7.14568 6.57513,-10.20148c0.07924,-0.09178 0.16256,-0.22344 0.24975,-0.3815c0.30387,-1.56931 1.76526,-3.63032 2.59088,-3.86457c0.56508,-0.16033 0.41564,-1.74509 1.04746,-2.05194c0.78696,-0.87137 3.0287,-0.89939 3.87675,-1.62629l0.35768,-0.17884c0.17371,-0.09145 0.37157,-0.14321 0.58151,-0.14321c0.23801,0 0.46049,0.06653 0.64985,0.18199c0.0814,-0.07381 0.16606,-0.14409 0.25373,-0.21061c0.05561,-0.05383 0.11429,-0.10456 0.17642,-0.15182c-0.00849,-0.16649 -0.03489,-0.32868 -0.10827,-0.50426c0,0 -0.08338,-0.20846 0.10545,-0.3093c-0.41349,-0.578 -0.60874,-1.24317 -0.69797,-1.93529c-0.09262,-0.31684 -0.17795,-0.63846 -0.25571,-0.95024c-0.36762,-1.12769 -0.6849,-2.27723 -0.85399,-2.61541c-0.24872,-0.50229 -0.55618,-0.97006 -0.7996,-1.479c-0.02218,-0.03641 -0.04367,-0.07214 -0.0644,-0.10706l-0.05802,0.04641l-0.2522,-0.31525c-0.03502,-0.04303 -0.05603,-0.09793 -0.05603,-0.15773c0,-0.13807 0.11193,-0.25 0.25,-0.25c0.04114,0 0.07995,0.00994 0.11418,0.02754c-0.52723,-1.32217 -0.95691,-2.69497 -1.18378,-4.041c-0.23147,-1.20505 -0.13292,-2.36707 -0.44016,-3.596l-0.06336,-0.25344c0,0 -0.06064,-0.24254 0.1819,-0.30317c0.01841,-0.0046 0.03577,-0.00745 0.05213,-0.0088c0.00367,-0.61899 0.15396,-1.06656 0.58346,-0.91173c0.07649,0.02758 0.13535,0.50191 0.19314,1.02192c0.1036,-0.04289 0.24803,-0.02177 0.44377,0.08567c0.00424,0.00926 0.00842,0.01852 0.01253,0.02781c-0.01103,0.02821 -0.0171,0.05892 -0.0171,0.09104v0.25344h0.04096l-0.02813,0.07906c0.08134,0.11593 0.1469,0.22369 0.20631,0.32661c0.01494,0.10806 0.04,0.23375 0.07314,0.37302c0.0445,0.33207 0.07935,0.66639 0.1587,0.99269c0.01675,0.06701 0.03294,0.13582 0.04867,0.20622c-0.00198,0.02824 -0.00412,0.05613 -0.00639,0.08363c0.02467,0.10927 0.04746,0.21921 0.06831,0.32934l0.02391,0.00597c0.00516,0.02715 0.01029,0.05448 0.01539,0.08195l-0.01352,0.05408c0.02271,0.13061 0.04263,0.2612 0.05964,0.39096c0.01782,0.03859 0.03548,0.07711 0.05299,0.11558c0.18675,1.08845 0.38578,2.31173 0.86839,3.22889l-0.10121,0.24486c0.12315,0.12315 0.23034,0.26147 0.32743,0.40877c0.02372,0.28232 0.03598,0.57222 0.03598,0.87175v0.25344c0,0.11848 -0.08243,0.21772 -0.19307,0.24349c0.18499,0.4579 0.41593,1.05465 0.54006,1.48737c0.16303,0.25126 0.27715,0.48412 0.30587,0.66152c0.05037,0.03502 0.08724,0.08809 0.10126,0.14985l0.06209,0.24837l-0.01376,0.00344l0.01935,0.02665c0.00041,0.08959 -0.0002,0.18068 -0.00143,0.27302c0.44363,0.79877 0.68909,3.28607 0.82512,3.84543l-0.12059,0.01987c0.00154,0.00357 0.00309,0.00713 0.00464,0.01067h0.11783v0.04666l0.05589,0.01398l-0.04988,0.1995c0.00847,0.01595 0.01687,0.0314 0.02523,0.0463c0.02767,0.02943 0.05621,0.05844 0.08561,0.08703c0,0 0.05554,0.05554 0.07323,0.13549c0.04768,0.04512 0.09223,0.06397 0.13289,0.05219c0,0 0.08938,-0.02234 0.17319,0.01436c0.75762,-0.35146 1.6628,-0.68775 2.58246,-0.90008c-0.16904,-1.30862 0.11747,-2.67439 -0.20301,-3.95631c0,0 -0.06063,-0.24254 0.18191,-0.30317c0.1267,-0.03168 0.20376,0.01938 0.24846,0.07538c-0.00308,-0.11326 -0.0048,-0.22633 -0.00498,-0.33857c-0.04853,-0.01535 -0.09579,-0.03358 -0.14156,-0.0545c-0.02717,-0.19141 -0.08,-0.35654 -0.17312,-0.47028c-0.13365,-0.16325 -0.31394,-0.25659 -0.51162,-0.32888c-0.02053,-0.0732 -0.03458,-0.14911 -0.04146,-0.22708c-0.22407,-0.29617 -0.42966,-0.62752 -0.61657,-0.9869c0.06291,-0.14168 0.04927,-0.41159 -0.09249,-0.84334c-0.15533,-0.07993 -0.31841,-0.2038 -0.43129,-0.34463c-0.22177,-0.11583 -0.35826,-0.31621 -0.36552,-0.62107c-0.00196,-0.08225 0.04594,-0.2182 0.12226,-0.38541c-0.01179,-0.56989 0.06555,-1.21883 0.06555,-1.61797c0,0 0,-0.19447 0.17151,-0.24038c0.02615,-0.16892 0.04387,-0.35939 0.04387,-0.58397v-0.25344c0,-0.12315 -0.08904,-0.2255 -0.20626,-0.24618c0.10839,-0.73147 0.15158,-1.48383 0.26476,-2.04913l0.05539,-0.16005c0,0 0.06128,-0.18385 -0.08594,-0.28177c0.01726,-0.07859 0.03009,-0.15302 0.03708,-0.22174c0.03153,-0.08089 0.06012,-0.14882 0.0852,-0.19941l0.17994,-0.23991l-0.10097,-0.07573l0.06477,-0.26314c-0.0781,0.0335 -0.15279,0.07683 -0.22403,0.12863l-0.06658,-0.06658c0.0188,-0.12505 0.03013,-0.25174 0.03083,-0.38086c0,0 0.00001,-0.18934 -0.16476,-0.23847c0.06586,-0.2888 0.13564,-0.57656 0.20681,-0.86316c0.04898,-0.03143 0.09895,-0.06658 0.14964,-0.10497c-0.00197,-0.01417 -0.00302,-0.02931 -0.00302,-0.04551c0,-0.12854 0.06609,-0.19099 0.13031,-0.22133c0.05702,-0.23631 -0.05228,-0.51008 0.0074,-0.66257c-0.00596,-0.03635 -0.01018,-0.07557 -0.0125,-0.11779v-0.25042c0,-0.13807 0.11193,-0.25 0.25,-0.25c0.13807,0 0.25,0.11193 0.25,0.25v0.03182c0.12824,-0.40344 0.3183,-0.71236 0.59623,-0.85597l0.16651,-0.16651c0.04524,-0.04524 0.10774,-0.07322 0.17677,-0.07322c0.07316,0 0.13898,0.03142 0.1847,0.08151c0.04579,-0.043 0.09411,-0.08354 0.14397,-0.12081c0.04728,-0.10933 0.17416,-0.14105 0.17416,-0.14105c0.03616,-0.00904 0.07254,-0.01769 0.10914,-0.02597c0.12995,-0.05647 0.25862,-0.08402 0.37127,-0.07071c0.3139,-0.04949 0.6365,-0.07637 0.95411,-0.08912c0.32402,-0.08993 0.64445,-0.13511 0.91197,-0.13282c1.14234,-0.28558 3.14793,-0.27104 4.28577,0.00559l0.24535,0.06134c0.11133,0.02526 0.19444,0.12482 0.19444,0.2438c0,0.00173 -0.00001,0.00346 -0.00005,0.00518c0.96942,0.3312 1.89746,1.03742 2.49366,1.63362l0.18782,0.18782c0.0072,0.0072 0.01398,0.01484 0.02026,0.02288c0.0134,0.00222 0.02717,0.00338 0.0412,0.00338c0.0069,0 0.01373,-0.00028 0.02049,-0.00083c0.07394,1.42434 0.36311,2.80659 0.36311,4.24944c0,1.02902 0,2.21455 0,3.31061c-0.06771,0.1436 -0.13185,0.29271 -0.1932,0.44572c0.07988,0.04173 0.13439,0.12536 0.13439,0.22172c0,0.02287 -0.00307,0.04503 -0.00883,0.06607l-0.06124,0.24499l-0.03911,-0.00978c-0.00748,0.14159 -0.01747,0.28145 -0.01604,0.44999l0.03622,0.01341c0,0 0.1118,0.2236 -0.11181,0.33541c-0.10276,0.05138 -0.1819,0.03193 -0.23744,-0.00411v0.09353c0,0.13807 -0.11193,0.25 -0.25,0.25c-0.00492,0 -0.00981,-0.00014 -0.01466,-0.00042c-0.04412,0.13816 -0.08815,0.27502 -0.13256,0.40955c-0.01887,0.05014 -0.03721,0.09978 -0.055,0.14889c-0.02951,-0.00507 -0.0593,-0.01188 -0.08931,-0.02036c-0.19882,0.40005 -0.40206,0.77213 -0.60188,1.10901c-0.39053,0.65839 -0.38506,3.02832 -1.18345,3.75172c0.00721,0.20143 0.02089,0.39831 0.04432,0.58899c0.01369,0.11137 0.02751,0.22254 0.04149,0.33355c0.42771,0.19804 0.8118,0.47431 1.13392,0.81043c4.36444,1.62063 11.47729,3.75488 12.47522,5.63021c0.45594,0.85681 0.4552,1.96408 0.13153,2.98591c1.13905,2.21326 0.6043,5.41947 0.474,7.57568c-0.22837,3.77914 0.81971,8.28551 1.20386,12.12696c0.14598,1.45975 0.69752,4.37887 -0.05595,6.05795c0.32698,1.17796 0.08004,2.74813 0.15373,3.86115c0.33119,5.00237 1.40197,10.71866 1.14049,15.42519c-0.01243,0.2238 -0.50187,1.23162 -1.06027,2.05511l0.08152,0.32605l-0.02413,0.00603c0.0243,0.07819 0.03956,0.15925 0.04343,0.2439c0.00778,0.17018 -0.04829,0.32321 -0.13757,0.46732c0.22897,1.13353 0.63743,3.14291 0.3309,3.69484c-0.24094,0.43383 -0.738,0.58713 -1.25831,0.71708l-0.15329,0.15328c-0.12152,0.12152 -0.28455,0.20154 -0.466,0.21695c-0.02501,0.15902 -0.11037,0.32316 -0.27617,0.50588l-0.01681,0.00711l0.00302,0.00402l-0.24841,0.1863c-0.04212,0.03231 -0.09483,0.05151 -0.15202,0.05151c-0.13807,0 -0.25,-0.11193 -0.25,-0.25v-0.01699c-0.11883,-0.11741 -0.03621,-0.28263 -0.03621,-0.28263c0.11201,-0.22076 0.16314,-0.42445 0.22226,-0.65808c-0.03861,-0.09039 -0.05999,-0.18991 -0.05999,-0.29441c0,-0.02396 0.00113,-0.04764 0.00332,-0.07102l0.06187,-0.74254l0.01074,0.0009l-0.00755,-0.03148c0.25273,-1.52376 0.09793,-1.5024 -1.06877,-2.53946c0,0 -0.05123,-0.04554 -0.10894,-0.12456c-0.13925,-0.07953 -0.24376,-0.18149 -0.37829,-0.31646c-0.37511,-0.03408 -0.74192,-0.09152 -1.07503,-0.17815c0.29867,2.10907 0.31149,4.56169 -0.17482,6.46279c0.34424,1.83597 1.06727,4.86029 0.40014,6.52072c0.21698,0.85279 -0.04606,1.93691 0.12185,2.70412c0.73706,3.36778 1.50078,8.15859 1.39393,11.58625c-0.02607,0.8362 0.33558,3.18609 -0.23754,4.10137c0.22558,0.23349 0.04703,0.79168 -0.09365,1.23016c0.03627,0.23717 0.07783,0.48035 0.12152,0.72692c0.09015,0.45739 0.17863,0.92211 0.24246,1.37468c0.15574,0.95231 0.25867,1.88392 0.13501,2.64999h0.07048v0.25344c0,0.13807 -0.11193,0.25 -0.25,0.25c-0.0998,0 -0.18594,-0.05848 -0.22602,-0.14304l-0.1167,-0.2334c-0.05802,-0.07682 -0.11605,-0.15363 -0.17408,-0.23045c0,0 -0.04532,-0.06041 -0.05293,-0.13974c-0.84447,-0.24379 -2.21447,-1.35239 -3.14534,-2.23782c-0.18128,1.62921 -0.61604,3.27957 -0.6451,4.76198c-0.0827,4.2178 0.25546,8.53449 0.12672,12.67215c-0.04718,1.51636 -0.04767,3.5176 -0.5601,5.16267c0.96668,1.92811 0.2428,6.22546 0.10227,6.94409c-0.80926,4.13839 2.20179,10.31351 -4.29942,10.31351c-5.06226,0 -3.96344,-5.22242 -3.85431,-8.92444c0.03614,-1.22577 -0.57478,-3.41644 0.16793,-4.04566c-2.60326,-3.19381 -1.57272,-11.68664 -1.65416,-14.45567c-0.03609,-1.22706 0.10127,-2.37167 0.25344,-3.53943c0.21339,-1.63757 -0.04008,-3.41943 -0.12672,-5.07763c-0.0454,-0.86884 -0.49397,-3.61514 -0.50482,-5.74184c-0.29318,-0.10399 -0.51331,-0.22933 -0.61341,-0.38254c-0.70767,0.15553 -1.46933,0.28187 -2.2572,0.39386c0.53238,4.03384 0.14153,11.59235 0.10411,13.8953c-0.00851,0.52346 -0.05414,1.1833 -0.16575,1.86835c0.34607,2.17709 0.5023,4.70949 0.12262,6.44724c-0.07415,0.33938 -0.14251,0.70893 -0.21366,1.09378l0.03149,0.14166l0.06966,0.27864v0.03483l0.00779,0.03505l-0.00779,0.01168v0.72936l0.03448,0.10345l0.11388,0.22776l0.01219,0.00696l0.00871,0.03483l0.01557,0.03116l0.05069,0.22809l0.01267,0.02535l0.01952,0.08783l0.0483,0.0759l0.06336,0.19008l0.00897,0.11656l0.11329,0.22659l0.01951,0.08782l0.04831,0.07591l0.02772,0.08315l0.0069,0.00394l0.00871,0.03483l0.01558,0.03116l0.00044,0.00198l0.0564,0.04834l0.00274,0.04928l0.04285,0.02449l0.06096,0.24385l0.14689,0.1259l0.00273,0.04928l0.04286,0.02448l0.07207,0.28827l0.01558,0.03116l0.0623,0.28037l0.06966,0.27864v0.03483l0.00779,0.03505l-0.00779,0.01168v0.10852l-0.15625,0.625l-0.25874,0.14785l-0.05221,0.04475l-0.1578,0.27614l-0.28827,0.07207l-0.03116,0.01558l-0.28037,0.06231l-0.06863,0.01716l-0.40173,0.20087l-0.00697,0.01219l-0.03483,0.00871l-0.03115,0.01558l-0.22809,0.05069l-0.15207,0.07603l-0.08783,0.01952l-0.0759,0.0483l-0.01707,0.00569l-0.136,0.11658l-0.05378,0.02688l-0.00697,0.01219l-0.03483,0.00871l-0.03115,0.01558l-0.0703,0.01562l-0.03054,0.01833l-0.02331,-0.00635l-0.15623,0.03472l-0.06864,0.01716l-0.23338,0.11669l-0.12789,0.07673l-0.04743,0.08299l-0.15582,0.03895l-0.13773,0.08264l-0.0802,-0.02188l-0.17378,0.03862l-0.03749,0.01874l-0.12789,0.07674l-0.04743,0.08299l-0.15582,0.03895l-0.13772,0.08264l-0.05808,-0.01584l-0.06869,0.0412l-0.15256,0.13077l-0.41466,0.20732l-0.14256,0.16633l-0.06226,0.00346l-0.07749,0.06642l-0.13887,0.06943l-0.08873,0.05325l-0.15257,0.13077l-0.03448,0.01724l-0.14257,0.16633l-0.06226,0.00346l-0.07748,0.06642l-0.28794,0.14396l-0.14256,0.16633l-0.04928,0.00273l-0.02449,0.04286l-0.22221,0.05555l-0.02622,0.01749l-0.07439,0.02657l-0.05997,0.0514l-0.18384,0.09192l-0.12533,0.08355l-0.04516,0.01612l-0.01778,0.01778l-0.0667,0.04002l-0.00472,0.00405l-0.01215,0.00607l-0.12789,0.07674l-0.04742,0.08299l-0.15582,0.03895l-0.13772,0.08264l-0.05808,-0.01585l-0.06868,0.04121l-0.11675,0.10008c-0.01086,0.01662 -0.02445,0.03339 -0.04122,0.05017zM246.59457,271.99371c0,0.04013 -0.00644,0.07381 -0.01726,0.10209c0.12752,-0.07144 0.24388,-0.14601 0.35201,-0.22319h-0.25032c-0.027,0.03174 -0.0554,0.06407 -0.08524,0.09704c0.00053,0.00775 0.00081,0.01577 0.00081,0.02406zM270.3454,184.62292c-0.11791,0.49765 -0.33498,0.95693 -0.62919,1.35583c0.02186,0.16384 0.03315,0.33103 0.03315,0.50084c0,0.53421 -0.1117,1.04233 -0.31303,1.50228c0.02055,0.14028 0.05768,0.28753 0.11696,0.44441c0.82098,2.1727 1.21395,4.60504 1.41091,7.14234c0.57501,-4.0186 2.00147,-5.81495 -0.53465,-10.99097c-0.02857,0.01317 -0.05661,0.02832 -0.08416,0.04527zM240.86215,171.56303c-0.24475,0.4929 1.04581,0.39872 1.59555,0.42417c1.87791,0.08695 2.76096,0.39229 2.21632,-1.24163c-0.04749,-0.1321 -0.07338,-0.27451 -0.07338,-0.42296c0,-0.01566 0.00029,-0.03125 0.00086,-0.04677c-0.02062,-0.0251 -0.03996,-0.04996 -0.05787,-0.07454c-0.34059,-0.46739 -0.78158,-1.22242 -1.19266,-2.05705c-0.87554,1.19662 -2.08996,2.61554 -2.48883,3.41879zM246.57709,136.53569c0.04599,0.39326 0.11763,0.79696 0.20814,1.20419c0.03357,-0.02334 0.07314,-0.03867 0.11592,-0.0432c-0.08047,-0.29716 -0.16733,-0.6548 -0.2573,-1.02701c-0.02194,-0.04426 -0.04407,-0.08867 -0.0664,-0.13324c-0.00012,-0.00025 -0.00024,-0.00049 -0.00036,-0.00074zM247.64607,141.96649c-0.27551,-0.68877 -0.62103,-1.54154 -0.91945,-2.42933c0.29149,0.98828 0.66861,1.96883 1.08237,2.91633c-0.0737,-0.22899 -0.13033,-0.40595 -0.16292,-0.487zM248.83205,144.91535v-0.08307c-0.0094,-0.00871 -0.01884,-0.01809 -0.02831,-0.02807c0.00876,0.03503 0.01785,0.07135 0.02726,0.10885c0.00035,0.00077 0.0007,0.00153 0.00105,0.00229zM272.4809,239.92191c-0.00237,-0.01361 -0.00472,-0.02723 -0.00704,-0.04087c-0.00486,0.02579 -0.00924,0.04929 -0.01313,0.07036c0.00672,-0.00984 0.01345,-0.01967 0.02017,-0.02949zM270.30807,238.9103c-0.005,-0.00468 -0.00999,-0.00939 -0.015,-0.01412c-0.0006,0.00018 -0.0012,0.00035 -0.0018,0.00052c0.00561,0.00453 0.01121,0.00905 0.01681,0.0136z" fill="#000000" stroke="none" stroke-width="0.5" stroke-linecap="butt"/><path d="M216.13008,135.91093l-8.74715,1.47839l-7.14556,-1.47839l-0.73919,-0.98559l-6.52956,-16.63189l6.03677,-9.73274l33.38699,-18.11029l12.07353,-3.69598l30.79981,2.95678l12.81272,9.85594l-4.92797,15.39991l-11.58073,6.40636l-12.81272,4.92797l-13.30552,5.91356l-31.53901,4.06557" fill="#000000" stroke="#000000" stroke-width="2" stroke-linecap="round"/><path d="M244.46591,130.85976l5.42076,23.40785l-6.40636,-21.92946" fill="none" stroke="#000000" stroke-width="2" stroke-linecap="round"/><path d="M242.49471,164.32374l-0.1232,2.71039" fill="none" stroke="#000000" stroke-width="1.5" stroke-linecap="round"/><path d="M243.11071,168.14292l1.72479,3.32638h-3.81918l2.71039,-4.31197" fill="none" stroke="#000000" stroke-width="1.5" stroke-linecap="round"/><path d="M269.49798,186.52377l1.82536,14.4284l1.10879,18.84948l0.73919,10.71834l0.73919,12.59711l-4.55837,-3.44958l-0.61599,38.43816l-1.72479,0.86239l-2.71039,0.61599l-2.46398,-0.86239l-0.86239,-1.47839l0.3696,-10.22554l-1.3552,-1.84799l-0.86239,-27.22703l-3.44958,-0.73919l0.3696,24.51665l0.98559,4.55837l-10.84153,6.03676l-3.46979,-0.5783" fill="none" stroke="#000000" stroke-width="0.5" stroke-linecap="round"/><path d="M241.88745,270.74686l0.73046,-4.5915l5.42077,-6.65275l-1.23199,-19.53452l-6.77596,3.69598v-3.81918l1.1088,-11.21113l1.84798,-21.55987l1.60159,-16.87829l-0.12319,-11.33433l0.61599,0.4928l-12.56633,-6.28316v-1.47839l0.7392,-2.34078l10.59513,-16.6319l4.68158,-1.72479l5.42102,-2.14347" fill="none" stroke="#000000" stroke-width="0.5" stroke-linecap="round"/><path d="M271.69293,201.81457l2.34078,0.1232l-0.2464,3.69598l1.72479,0.98559l-1.35519,-1.10879l-2.09439,1.35519" fill="none" stroke="none" stroke-width="1.5" stroke-linecap="round"/><path d="M245.82109,131.10615l4.55837,18.72628l3.69598,-1.07054v-2.83358l-0.61599,-0.73919l-0.2464,-1.23199l-0.98559,-1.84799l-1.1088,-1.23199l0.7392,-9.85594l2.21758,-1.47839l3.57278,-0.3696l2.34078,-0.1232l3.20319,1.72479l0.86239,2.09439l-0.1232,7.76155l-1.72479,2.21759l-0.98559,3.20318v1.60159l1.47839,1.10879l12.31993,4.80477l2.71038,48.98708l-0.7392,0.7392v5.29756l-2.71038,2.46399l0.86239,-4.06557l-1.60159,-1.97119l-1.47839,-0.12319" fill="none" stroke="#000000" stroke-width="0.5" stroke-linecap="round"/><path d="M271.07694,185.18267l1.23199,2.46399l-1.35519,11.70392l-1.47839,-12.68952l0.73919,-1.60159l0.2757,-0.32178z" fill="none" stroke="#000000" stroke-width="0.5" stroke-linecap="round"/><path d="M260.29254,137.73289c0,0.32666 -0.36111,0.59149 -0.80657,0.59149c-0.44545,0 -0.80657,-0.26482 -0.80657,-0.59149c0,-0.32666 0.36111,-0.59149 0.80657,-0.59149c0.44545,0 0.80657,0.26482 0.80657,0.59149z" fill="#ffffff" stroke="none" stroke-width="0" stroke-linecap="butt"/><path d="M255.36011,137.68865c0,0.32666 -0.36111,0.59149 -0.80657,0.59149c-0.44546,0 -0.80657,-0.26482 -0.80657,-0.59149c0,-0.32666 0.36111,-0.59149 0.80657,-0.59149c0.44546,0 0.80657,0.26482 0.80657,0.59149z" fill="#ffffff" stroke="none" stroke-width="0" stroke-linecap="butt"/></g></g></svg>