<?xml version="1.0" encoding="UTF-8" standalone="no"?>
<!-- Uploaded to: SVG Repo, www.svgrepo.com, Generator: SVG Repo Mixer Tools -->

<svg
   width="800px"
   height="800px"
   viewBox="0 -0.5 25 25"
   fill="none"
   version="1.1"
   id="svg1"
   sodipodi:docname="inventory.svg"
   inkscape:version="1.4.2 (f4327f4, 2025-05-13)"
   xmlns:inkscape="http://www.inkscape.org/namespaces/inkscape"
   xmlns:sodipodi="http://sodipodi.sourceforge.net/DTD/sodipodi-0.dtd"
   xmlns="http://www.w3.org/2000/svg"
   xmlns:svg="http://www.w3.org/2000/svg">
  <defs
     id="defs1" />
  <sodipodi:namedview
     id="namedview1"
     pagecolor="#505050"
     bordercolor="#ffffff"
     borderopacity="1"
     inkscape:showpageshadow="0"
     inkscape:pageopacity="0"
     inkscape:pagecheckerboard="1"
     inkscape:deskcolor="#505050"
     inkscape:zoom="1.61625"
     inkscape:cx="399.69064"
     inkscape:cy="400"
     inkscape:window-width="2560"
     inkscape:window-height="1537"
     inkscape:window-x="-8"
     inkscape:window-y="-8"
     inkscape:window-maximized="1"
     inkscape:current-layer="svg1" />
  <path
     d="m 13.127782,12.094686 c 0,-0.478268 -0.383289,-0.866009 -0.856066,-0.866009 -0.472776,0 -0.856065,0.387741 -0.856065,0.866009 z m -0.856066,7.988067 h -0.856065 c 0,0.287515 0.141079,0.556324 0.376554,0.717401 0.235475,0.161078 0.534642,0.193409 0.798424,0.08626 z m 6.55632,-2.662689 0.318913,0.803656 c 0.324506,-0.131749 0.537153,-0.449978 0.537153,-0.803656 z m 0.856066,-5.535529 c 0,-0.478268 -0.383289,-0.866009 -0.856066,-0.866009 -0.472776,0 -0.856065,0.387741 -0.856065,0.866009 z m -6.892583,-0.477922 c -0.375641,-0.290401 -0.912908,-0.217772 -1.199975,0.162233 -0.287068,0.380004 -0.215272,0.923512 0.160369,1.213913 z m 1.817827,2.495145 -0.519803,0.688073 c 0.254537,0.196757 0.596278,0.233361 0.885856,0.0948 z m 4.58132,-1.234351 c 0.427348,-0.204609 0.609975,-0.720866 0.407829,-1.153178 -0.202259,-0.432311 -0.712589,-0.61706 -1.139936,-0.412566 z M 11.952803,11.29103 c -0.438762,0.178167 -0.651637,0.682415 -0.475516,1.126274 0.176122,0.443858 0.67458,0.659206 1.113342,0.481039 z m 7.194146,-1.055376 C 19.585711,10.057487 19.798586,9.5532042 19.622465,9.1093573 19.446344,8.6655104 18.947886,8.4501398 18.509124,8.6283298 Z m -0.637711,0 c 0.438762,0.178167 0.93722,-0.0373 1.113227,-0.4811547 0.176121,-0.4438584 -0.03687,-0.948095 -0.47563,-1.1262157 z M 12.590515,5.9667495 c -0.438762,-0.1781207 -0.937221,0.037319 -1.113228,0.4811892 -0.176121,0.4438815 0.03687,0.9481181 0.47563,1.1262388 z m 6.656994,2.711497 c -0.412053,-0.2343766 -0.934025,-0.086393 -1.165733,0.3305267 -0.231709,0.4169198 -0.08538,0.9449082 0.326788,1.1793078 z m 1.921581,2.0862505 0.365597,0.783103 c 0.289579,-0.138331 0.478598,-0.428617 0.489898,-0.752389 0.01141,-0.323772 -0.156831,-0.626875 -0.436023,-0.785643 z m -2.710075,0.336935 c -0.427462,0.204262 -0.610432,0.720404 -0.408514,1.152946 0.201917,0.432428 0.712132,0.617522 1.139708,0.41326 z M 18.189868,8.8508825 c -0.317201,0.3546133 -0.290263,0.9022312 0.06027,1.2232315 0.35053,0.320885 0.891906,0.293635 1.209221,-0.06097 z M 21.631366,6.2947359 22.26611,6.875851 C 22.459923,6.6591409 22.532745,6.3581047 22.459466,6.0753585 22.386301,5.7926009 22.177079,5.5662723 21.903024,5.4735054 Z M 14.609346,3.9172528 14.881004,3.0960223 C 14.546111,2.9826098 14.176633,3.0889787 13.95086,3.3638269 Z m -3.001822,2.2997848 c -0.302135,0.3678806 -0.252254,0.9138819 0.111402,1.2195253 0.363657,0.305655 0.903435,0.2552071 1.205569,-0.1126735 z M 5.3908672,8.6282836 C 4.9520937,8.8064043 4.7391274,9.3106409 4.915203,9.7544993 5.0912785,10.198358 5.5897255,10.413821 6.0285105,10.235654 Z M 12.584808,7.5741775 C 13.02357,7.3960568 13.236559,6.8918202 13.060438,6.4479387 12.884431,6.0040687 12.385972,5.7886288 11.94721,5.9667495 Z M 6.1291952,10.186926 C 6.5413279,9.9525267 6.6876124,9.4245384 6.4559268,9.0076186 6.2242299,8.5906988 5.7023153,8.4427152 5.2901825,8.6770918 Z M 3.3686351,10.763342 2.9491287,10.008413 c -0.2790202,0.158653 -0.4472314,0.461641 -0.4360341,0.785182 0.011197,0.323656 0.1999199,0.613942 0.4892358,0.752504 z m 1.974749,1.903949 c 0.4273137,0.204609 0.9377342,0.02009 1.1400396,-0.41222 0.2023054,-0.432311 0.019895,-0.948568 -0.4074301,-1.153293 z M 6.0286246,8.6283298 c -0.4387507,-0.17819 -0.9372319,0.037181 -1.113376,0.4810275 -0.176144,0.4438469 0.036754,0.9481297 0.4755045,1.1262967 z m 5.9184714,4.2700132 c 0.438762,0.178167 0.937221,-0.03718 1.113342,-0.481039 0.176121,-0.443859 -0.03675,-0.948107 -0.475516,-1.126274 z M 5.0701508,10.00772 c 0.3142788,0.357258 0.8553921,0.389127 1.2086047,0.07124 C 6.6319681,9.761081 6.663517,9.2136363 6.3492268,8.856321 Z M 3.3686351,6.7704635 3.0303408,5.9749477 C 2.7776759,6.0848962 2.5926288,6.3109592 2.5329554,6.5825742 2.4732819,6.8541892 2.5462529,7.1382748 2.7290971,7.34614 Z M 9.9249553,3.9172528 10.583669,3.3641502 C 10.341231,3.0686564 9.9353423,2.9699776 9.5866611,3.121737 Z m 1.6823397,3.4063133 c 0.301906,0.3680307 0.841684,0.4187326 1.205455,0.1132624 0.36377,-0.3054702 0.413993,-0.8514484 0.111973,-1.2194676 z m 1.51478,4.7722749 c 0,-0.478268 -0.383289,-0.866009 -0.856066,-0.866009 -0.472776,0 -0.856065,0.387741 -0.856065,0.866009 z m -0.856066,7.986912 -0.318913,0.803656 c 0.263782,0.107154 0.562949,0.07482 0.798424,-0.08626 0.235475,-0.161077 0.376555,-0.429886 0.376555,-0.717401 z M 5.7096888,17.420064 H 4.8536233 c 0,0.353678 0.2126467,0.671907 0.5371298,0.803656 z m 0.8560655,-5.535529 c 0,-0.478268 -0.3832776,-0.866009 -0.8560655,-0.866009 -0.4727878,0 -0.8560655,0.387741 -0.8560655,0.866009 z m 6.2196007,0.898571 c 0.37587,-0.290056 0.448008,-0.833563 0.161169,-1.213798 -0.286725,-0.380236 -0.823991,-0.453212 -1.199861,-0.163041 z M 9.9249553,13.901758 9.5588789,14.68463 c 0.289373,0.138446 0.6308861,0.102074 0.8854231,-0.09445 z m -3.84919,-2.800095 c -0.4273822,-0.204494 -0.9377456,-0.01975 -1.1399254,0.412566 -0.2021799,0.432312 -0.01961,0.948569 0.4077725,1.153178 z m 5.3398857,0.993023 v 7.988067 h 1.712131 v -7.988067 z m 1.174978,8.791723 6.55632,-2.662689 -0.637825,-1.607312 -6.556321,2.662688 z m 7.093473,-3.466345 v -5.535529 h -1.712131 v 5.535529 z m -7.932189,-4.637305 2.33763,1.807072 1.039606,-1.376146 -2.33763,-1.807072 z m 3.223486,1.901871 4.215267,-2.017223 -0.732107,-1.565744 -4.215267,2.017223 z m -2.38477,-1.786287 6.55632,-2.662689 -0.637825,-1.6073242 -6.556321,2.6627002 z m 6.556206,-4.2700594 -6.55632,-2.6615341 -0.637598,1.607428 6.556321,2.6614765 z m -0.738271,1.5597974 2.341054,1.331344 0.838944,-1.509857 -2.341053,-1.3313215 z m 2.394929,-0.2066874 -2.344478,1.1200384 0.731194,1.566206 2.344478,-1.120038 z M 19.459356,10.013147 22.26611,6.875851 20.996622,5.7136208 18.189868,8.8508825 Z m 2.443668,-4.5396416 -7.02202,-2.3774831 -0.543316,1.642461 7.022019,2.3774831 z M 13.95086,3.3638269 11.607524,6.2170376 12.924495,7.3238894 15.267831,4.4706787 Z M 6.0285105,10.235654 12.584808,7.5741775 11.94721,5.9667495 5.3908672,8.6282836 Z M 5.2901825,8.6770918 2.9491287,10.008413 3.7881414,11.518271 6.1291952,10.186926 Z M 3.0023304,11.546099 5.3433841,12.667291 6.0759936,11.101778 3.7349398,9.9805854 Z M 5.3907531,10.235654 11.947096,12.898343 12.584922,11.29103 6.0286246,8.6283298 Z M 6.3492268,8.856321 4.0081731,6.194787 2.7290971,7.34614 5.0701508,10.00772 Z M 3.7069293,7.5659793 10.263272,4.7127686 9.5866611,3.121737 3.0303408,5.9749477 Z M 9.2662415,4.4703553 11.607295,7.3235661 12.924723,6.2173609 10.583669,3.3641502 Z m 2.1437025,7.6254857 v 7.986912 h 1.712131 v -7.986912 z m 1.174978,7.183255 -6.5562974,-2.662688 -0.6378715,1.607312 6.5563429,2.662689 z M 6.5657543,17.420064 v -5.535529 h -1.712131 v 5.535529 z m 5.1809087,-6.013797 -2.3410084,1.807072 1.0386474,1.376839 2.341053,-1.807072 z m -1.455654,1.712619 -4.2152437,-2.017223 -0.7321529,1.565744 4.2152665,2.017223 z"
     fill="#000000"
     id="path1"
     style="stroke-width:1.14803" />
</svg>
